<?xml version="1.0" encoding="UTF-8"?>
<svg width="1199px" height="147px" viewBox="0 0 1199 147" version="1.1" xmlns="http://www.w3.org/2000/svg" xmlns:xlink="http://www.w3.org/1999/xlink">
    <!-- Generator: Sketch 45.1 (43504) - http://www.bohemiancoding.com/sketch -->
    <title>plane</title>
    <desc>Created with Sketch.</desc>
    <defs></defs>
    <g id="Page-1" stroke="none" stroke-width="1" fill="none" fill-rule="evenodd">
        <g id="Artboard" transform="translate(0.000000, -1135.000000)">
            <g id="Influencers" transform="translate(0.000000, 1135.000000)">
                <g id="Group-10" transform="translate(-251.000000, -103.000000)">
                    <g id="plane">
                        <path d="M20.9965121,246.81656 C-22.0779713,377.953227 50.4677135,357.427331 238.633566,185.238873 C426.799419,13.050415 659.04874,0.319812387 935.381527,147.047065 C1078.32051,207.924631 1176.6611,226.612112 1230.40328,203.109508 C1311.01657,167.855602 1263.79,71.2970082 1225.4736,94.9923207 C1187.15719,118.687633 1229.0986,173.414196 1324.00485,149.925914" id="Path-4-Copy" stroke="#FFFFFF" stroke-width="2" stroke-dasharray="8,8,8,8" transform="translate(666.482878, 188.822704) rotate(4.000000) translate(-666.482878, -188.822704) "></path>
                        <path d="M1372.695,155.221424 L1403.949,164.432324 L1385.613,170.795624 L1367.031,158.326624 C1365.7458,156.115724 1370.0193,153.728924 1372.6951,155.217224 L1372.695,155.221424 Z M1350,171.401424 L1357.0156,184.428424 C1354.0273,186.647224 1353.9648,189.475324 1358.8672,189.440124 C1363.7734,189.408874 1383.4062,187.897124 1390.3052,185.647124 L1384.7349,214.440124 C1384.14506,217.490924 1392.6841,215.584624 1393.2818,212.842424 L1409.8518,179.479424 L1447.6838,167.538424 C1449.6643,166.905614 1450.9494,164.507224 1449.1096,163.050124 C1448.71507,162.749344 1432.1446,157.725924 1426.1686,159.698524 L1373.7276,177.003524 C1371.501,177.730084 1369.5714,176.757434 1367.3565,175.952724 L1354.9385,171.444924 C1353.044,170.749614 1351.6299,170.886334 1350.001,171.401954 L1350,171.401424 Z" id="Page-1-Copy" fill="#FFFFFF"></path>
                    </g>
                </g>
            </g>
        </g>
    </g>
</svg>