<?xml version="1.0" encoding="UTF-8"?>
<svg width="1417px" height="121px" viewBox="0 0 1417 121" version="1.1" xmlns="http://www.w3.org/2000/svg" xmlns:xlink="http://www.w3.org/1999/xlink">
    <!-- Generator: Sketch 45.1 (43504) - http://www.bohemiancoding.com/sketch -->
    <title>plane</title>
    <desc>Created with Sketch.</desc>
    <defs></defs>
    <g id="Page-1" stroke="none" stroke-width="1" fill="none" fill-rule="evenodd">
        <g id="Artboard" transform="translate(-2.000000, -1162.000000)">
            <g id="Influencers" transform="translate(0.000000, 1135.000000)">
                <g id="Group-10" transform="translate(-14.000000, -57.000000)">
                    <g id="plane">
                        <path d="M4.72124349,201.262161 C115.014675,237.829431 264.839039,219.70124 454.194336,146.877587 C643.549633,74.0539349 805.152412,62.7535678 939.002671,112.976486 C1068.67738,166.198172 1160.38583,181.057713 1214.12802,157.555109 C1294.7413,122.301203 1247.51473,25.7426089 1209.19833,49.4379214 C1170.88192,73.1332339 1212.82333,127.859796 1307.72958,104.371515" id="Path-4-Copy" stroke="#FFFFFF" stroke-width="2" stroke-dasharray="8,8,8,8" transform="translate(656.225411, 132.668708) rotate(4.000000) translate(-656.225411, -132.668708) "></path>
                        <path d="M1355.695,109.221424 L1386.949,118.432324 L1368.613,124.795624 L1350.031,112.326624 C1348.7458,110.115724 1353.0193,107.728924 1355.6951,109.217224 L1355.695,109.221424 Z M1333,125.401424 L1340.0156,138.428424 C1337.0273,140.647224 1336.9648,143.475324 1341.8672,143.440124 C1346.7734,143.408874 1366.4062,141.897124 1373.3052,139.647124 L1367.7349,168.440124 C1367.14506,171.490924 1375.6841,169.584624 1376.2818,166.842424 L1392.8518,133.479424 L1430.6838,121.538424 C1432.6643,120.905614 1433.9494,118.507224 1432.1096,117.050124 C1431.71507,116.749344 1415.1446,111.725924 1409.1686,113.698524 L1356.7276,131.003524 C1354.501,131.730084 1352.5714,130.757434 1350.3565,129.952724 L1337.9385,125.444924 C1336.044,124.749614 1334.6299,124.886334 1333.001,125.401954 L1333,125.401424 Z" id="Page-1-Copy" fill="#FFFFFF"></path>
                    </g>
                </g>
            </g>
        </g>
    </g>
</svg>