<?xml version="1.0" encoding="UTF-8"?>
<svg width="2588px" height="164px" viewBox="0 0 2588 164" version="1.1" xmlns="http://www.w3.org/2000/svg" xmlns:xlink="http://www.w3.org/1999/xlink">
    <!-- Generator: Sketch 45.1 (43504) - http://www.bohemiancoding.com/sketch -->
    <title>plane</title>
    <desc>Created with Sketch.</desc>
    <defs></defs>
    <g id="Page-1" stroke="none" stroke-width="1" fill="none" fill-rule="evenodd">
        <g id="Artboard-2" transform="translate(-1058.000000, -64.000000)">
            <g id="plane" transform="translate(1054.000000, -81.000000)">
                <path d="M6.73022486,283.581349 C359.777068,326.311489 616.410148,344.568727 776.629467,338.353064 C1143.27336,324.12922 1402.33704,222.871141 1507.4874,178.638184 C1714.99746,91.3462093 1911.38262,82.9913043 2096.64288,153.57347 C2226.31759,206.795155 2318.02604,221.654696 2371.76822,198.152092 C2452.38151,162.898186 2405.15494,66.3395922 2366.83854,90.0349047 C2328.52213,113.730217 2370.46354,168.45678 2465.36979,144.968498" id="Path-4-Copy" stroke="#FFFFFF" stroke-width="2" stroke-dasharray="8,8,8,8" transform="translate(1236.050006, 212.936852) rotate(4.000000) translate(-1236.050006, -212.936852) "></path>
                <path d="M2514.695,190.221424 L2545.949,199.432324 L2527.613,205.795624 L2509.031,193.326624 C2507.7458,191.115724 2512.0193,188.728924 2514.6951,190.217224 L2514.695,190.221424 Z M2492,206.401424 L2499.0156,219.428424 C2496.0273,221.647224 2495.9648,224.475324 2500.8672,224.440124 C2505.7734,224.408874 2525.4062,222.897124 2532.3052,220.647124 L2526.7349,249.440124 C2526.14506,252.490924 2534.6841,250.584624 2535.2818,247.842424 L2551.8518,214.479424 L2589.6838,202.538424 C2591.6643,201.905614 2592.9494,199.507224 2591.1096,198.050124 C2590.71507,197.749344 2574.1446,192.725924 2568.1686,194.698524 L2515.7276,212.003524 C2513.501,212.730084 2511.5714,211.757434 2509.3565,210.952724 L2496.9385,206.444924 C2495.044,205.749614 2493.6299,205.886334 2492.001,206.401954 L2492,206.401424 Z" id="Page-1-Copy" fill="#FFFFFF"></path>
            </g>
        </g>
    </g>
</svg>