<?xml version="1.0" encoding="UTF-8"?>
<svg width="344px" height="54px" viewBox="0 0 344 54" version="1.1" xmlns="http://www.w3.org/2000/svg" xmlns:xlink="http://www.w3.org/1999/xlink">
    <!-- Generator: Sketch 63.1 (92452) - https://sketch.com -->
    <title>logotype-dark-blue</title>
    <desc>Created with Sketch.</desc>
    <g id="Page-1" stroke="none" stroke-width="1" fill="none" fill-rule="evenodd">
        <g id="Orderhero" transform="translate(-661.000000, -1096.000000)" fill="#FFFFFF" fill-rule="nonzero">
            <path d="M686.062661,1100.07749 L693.109149,1100.10551 L694.296008,1100.10063 L694.832877,1100.09384 L708.605101,1100.09384 C709.924234,1100.09384 710.932134,1101.11741 709.93639,1102.54139 L709.85123,1102.65771 L705.014528,1109.01374 C708.519662,1113.25995 710.625323,1118.70415 710.625323,1124.64015 C710.625323,1138.20573 699.628245,1149.20281 686.062661,1149.20281 C682.01737,1149.20281 678.200483,1148.2249 674.835504,1146.49258 L672.229147,1148.69198 C670.813099,1149.88824 669.112881,1148.76648 670.137738,1146.90424 L670.203914,1146.78931 L680.866587,1129.05469 C681.54404,1127.93009 681.420837,1125.84392 679.213018,1125.74749 L679.051755,1125.74403 L675.718012,1125.74403 C674.392707,1125.74403 673.120462,1124.12896 674.539735,1122.15842 L674.638369,1122.02653 L688.593888,1104.02775 C687.764249,1103.92692 686.919516,1103.87502 686.062661,1103.87502 C674.594398,1103.87502 665.297533,1113.17189 665.297533,1124.64015 C665.297533,1130.71423 667.905504,1136.17919 672.062771,1139.97635 L669.908658,1143.14392 C664.755389,1138.64134 661.5,1132.02091 661.5,1124.64015 C661.5,1111.07457 672.497078,1100.07749 686.062661,1100.07749 Z M738.329332,1112.17982 C743.07388,1112.17982 747.39669,1113.93706 750.54176,1117.03918 L750.754362,1117.25276 C754.136323,1120.63472 755.974346,1125.04598 755.974346,1129.75131 C755.974346,1134.45665 754.136323,1138.86791 750.754362,1142.24987 C747.445922,1145.55831 743.034669,1147.39633 738.329332,1147.39633 C733.771036,1147.39633 729.286262,1145.55831 725.83078,1142.24987 C722.52234,1138.79438 720.684318,1134.30961 720.684318,1129.75131 C720.684318,1125.1195 722.52234,1120.63472 725.83078,1117.25276 C729.212741,1114.01784 733.623995,1112.17982 738.329332,1112.17982 Z M833.849679,1112.17982 C836.202348,1112.17982 838.334454,1112.62095 840.319518,1113.57672 C842.525144,1114.60601 844.289646,1115.92939 845.613022,1117.47333 C847.451044,1119.45273 848.881221,1121.97594 849.642114,1124.84685 L849.730192,1125.19302 C850.069519,1126.48246 850.220911,1127.83455 850.242194,1129.36494 L850.244838,1129.75131 L850.244838,1131.4423 L825.541818,1131.4423 L825.615339,1131.95694 C826.555181,1136.43927 829.912104,1139.71305 833.658841,1139.82093 L833.9232,1139.82368 C835.979159,1139.68189 838.240208,1138.44629 839.6516,1137.30346 L840.613601,1136.51524 L846.715835,1141.80874 L845.613022,1142.76451 L845.190957,1143.14233 C844.532333,1143.72131 843.763427,1144.34164 842.946273,1144.81723 L842.672186,1144.97014 L842.598665,1144.97014 C840.057783,1146.45232 837.313631,1147.25693 834.236114,1147.38398 L833.849679,1147.39633 L833.776158,1147.39633 C831.644052,1147.39633 829.438426,1146.88168 827.379841,1145.92591 C825.468297,1145.11718 823.703796,1143.7938 822.086336,1142.10282 C819.591082,1139.39369 818.063684,1135.85497 817.638217,1132.15703 L817.601562,1131.8099 C817.528041,1131.14821 817.45452,1130.48652 817.45452,1129.75131 C817.45452,1128.41457 817.636804,1127.01707 817.946133,1125.61404 L818.042687,1125.19302 C818.704375,1122.25218 820.101272,1119.53191 822.086336,1117.47333 C823.556754,1115.85587 825.247735,1114.60601 827.379841,1113.57672 C829.364905,1112.62095 831.570531,1112.17982 833.849679,1112.17982 Z M929.316557,1112.17982 C931.669225,1112.17982 933.801331,1112.62095 935.786395,1113.57672 C937.992022,1114.60601 939.756523,1115.92939 941.079899,1117.47333 C942.917922,1119.45273 944.348099,1121.97594 945.108992,1124.84685 L945.197069,1125.19302 C945.536397,1126.48246 945.687789,1127.83455 945.709072,1129.36494 L945.711716,1129.75131 L945.711716,1131.4423 L921.008696,1131.4423 L921.082217,1131.95694 C922.022059,1136.43927 925.378982,1139.71305 929.125719,1139.82093 L929.390078,1139.82368 C931.446037,1139.68189 933.707086,1138.44629 935.118478,1137.30346 L936.080479,1136.51524 L942.182713,1141.80874 L941.079899,1142.76451 L940.657835,1143.14233 C939.99921,1143.72131 939.230304,1144.34164 938.41315,1144.81723 L938.139064,1144.97014 L938.065543,1144.97014 C935.524661,1146.45232 932.780508,1147.25693 929.702992,1147.38398 L929.316557,1147.39633 L929.243036,1147.39633 C927.11093,1147.39633 924.905303,1146.88168 922.846718,1145.92591 C920.935175,1145.11718 919.170674,1143.7938 917.553214,1142.10282 C915.05796,1139.39369 913.530561,1135.85497 913.105095,1132.15703 L913.06844,1131.8099 C912.994919,1131.14821 912.921398,1130.48652 912.921398,1129.75131 C912.921398,1128.41457 913.103681,1127.01707 913.41301,1125.61404 L913.509565,1125.19302 C914.171253,1122.25218 915.56815,1119.53191 917.553214,1117.47333 C919.023632,1115.85587 920.714612,1114.60601 922.846718,1113.57672 C924.831782,1112.62095 927.037409,1112.17982 929.316557,1112.17982 Z M987.030457,1112.17982 C991.775005,1112.17982 996.097815,1113.93706 999.242885,1117.03918 L999.455487,1117.25276 C1002.83745,1120.63472 1004.67547,1125.04598 1004.67547,1129.75131 C1004.67547,1134.45665 1002.83745,1138.86791 999.455487,1142.24987 C996.147047,1145.55831 991.735794,1147.39633 987.030457,1147.39633 C982.472161,1147.39633 977.987387,1145.55831 974.531905,1142.24987 C971.223465,1138.79438 969.385443,1134.30961 969.385443,1129.75131 C969.385443,1125.1195 971.223465,1120.63472 974.531905,1117.25276 C977.913866,1114.01784 982.32512,1112.17982 987.030457,1112.17982 Z M814.483608,1096.20281 L814.483608,1146.5876 L805.58758,1146.5876 L805.58758,1143.94085 L805.219976,1144.30845 C802.573223,1146.88168 799.558867,1147.24929 796.912115,1147.24929 C792.280299,1147.24929 787.869045,1145.48479 784.487084,1142.17635 C781.178644,1138.79438 779.340622,1134.38313 779.340622,1129.75131 C779.340622,1125.1195 781.178644,1120.70825 784.487084,1117.32628 C787.795524,1114.01784 792.206778,1112.25334 796.912115,1112.25334 C799.900383,1112.25334 802.613235,1113.28615 804.984038,1115.35178 L805.219976,1115.56178 L805.58758,1115.85587 L805.58758,1097.57364 L814.483608,1096.20281 Z M779.972233,1112.1063 L777.766606,1121.29641 L776.369709,1121.29641 C772.099754,1121.29641 768.613453,1124.57351 768.505548,1128.53297 L768.502974,1128.72202 L768.502974,1146.5876 L759.239342,1146.5876 L759.239342,1112.91503 L768.502974,1112.91503 L768.502974,1115.6353 C771.078192,1113.06009 774.906219,1112.15528 777.549157,1112.10825 L777.766606,1112.1063 L779.972233,1112.1063 Z M874.617013,1112.1063 L872.411387,1121.29641 L871.01449,1121.29641 C866.744534,1121.29641 863.258233,1124.57351 863.150329,1128.53297 L863.147754,1128.72202 L863.147754,1146.5876 L853.884122,1146.5876 L853.884122,1112.91503 L863.147754,1112.91503 L863.147754,1115.6353 C865.722973,1113.06009 869.551,1112.15528 872.193937,1112.10825 L872.411387,1112.1063 L874.617013,1112.1063 Z M886.270075,1096.22554 L886.270075,1115.34122 C888.549222,1113.06207 890.975412,1112.25334 893.401601,1112.25334 C897.812855,1112.25334 901.930025,1113.94432 905.017902,1116.95868 C908.032259,1120.04481 909.715445,1124.04173 909.793888,1128.26553 L909.79676,1128.57498 L909.79676,1146.5876 L900.533128,1146.5876 L900.533128,1128.57498 C900.533128,1124.60485 897.371729,1121.51697 893.401601,1121.51697 C889.641188,1121.51697 886.378687,1124.57557 886.27273,1128.38395 L886.270075,1128.57498 L886.270075,1146.5876 L877.079963,1146.5876 L877.079963,1097.64182 L886.270075,1096.22554 Z M970.083891,1112.1063 L967.878264,1121.29641 L966.481367,1121.29641 C962.211412,1121.29641 958.725111,1124.57351 958.617206,1128.53297 L958.614632,1128.72202 L958.614632,1146.5876 L949.351,1146.5876 L949.351,1112.91503 L958.614632,1112.91503 L958.614632,1115.6353 C961.18985,1113.06009 965.017877,1112.15528 967.660815,1112.10825 L967.878264,1112.1063 L970.083891,1112.1063 Z M702.640195,1112.13317 L699.43293,1116.34867 C698.609639,1117.43064 698.878456,1119.00722 700.686616,1119.09165 L700.840869,1119.09519 L703.233697,1119.09519 C704.214831,1119.09519 705.57007,1120.29006 704.302408,1121.61712 L704.202369,1121.71688 L678.033043,1143.79583 C680.503147,1144.83247 683.216011,1145.40528 686.062661,1145.40528 C697.530925,1145.40528 706.82779,1136.10841 706.82779,1124.64015 C706.82779,1119.94395 705.26883,1115.61186 702.640195,1112.13317 Z M738.329332,1120.5612 C733.403432,1120.5612 729.359783,1124.67837 729.359783,1129.75131 C729.359783,1134.82426 733.403432,1138.94143 738.329332,1138.94143 C743.328752,1138.94143 747.372401,1134.82426 747.372401,1129.75131 C747.372401,1124.67837 743.328752,1120.5612 738.329332,1120.5612 Z M987.030457,1120.5612 C982.104557,1120.5612 978.060908,1124.67837 978.060908,1129.75131 C978.060908,1134.82426 982.104557,1138.94143 987.030457,1138.94143 C992.029877,1138.94143 996.073526,1134.82426 996.073526,1129.75131 C996.073526,1124.67837 992.029877,1120.5612 987.030457,1120.5612 Z M796.912115,1120.85529 C792.206778,1120.85529 788.23665,1124.97246 788.23665,1129.75131 C788.23665,1134.60369 792.206778,1138.64734 796.912115,1138.64734 C801.617452,1138.64734 805.58758,1134.60369 805.58758,1129.75131 C805.58758,1124.97246 801.617452,1120.85529 796.912115,1120.85529 Z M833.849679,1119.82599 C831.047531,1119.82599 828.245382,1121.72185 826.678415,1124.69012 L826.571111,1124.89894 L826.277027,1125.4871 L841.495852,1125.4871 L841.201768,1124.89894 C839.510788,1121.73754 836.716994,1119.82599 833.849679,1119.82599 Z M929.316557,1119.82599 C926.514408,1119.82599 923.71226,1121.72185 922.145292,1124.69012 L922.037989,1124.89894 L921.743905,1125.4871 L936.96273,1125.4871 L936.668646,1124.89894 C934.977665,1121.73754 932.183872,1119.82599 929.316557,1119.82599 Z" id="logotype-dark-blue"></path>
        </g>
    </g>
</svg>