<?xml version="1.0" encoding="UTF-8"?>
<svg width="272px" height="43px" viewBox="0 0 272 43" version="1.1" xmlns="http://www.w3.org/2000/svg" xmlns:xlink="http://www.w3.org/1999/xlink">
    <!-- Generator: Sketch 63.1 (92452) - https://sketch.com -->
    <title>logotype-dark-blue</title>
    <desc>Created with Sketch.</desc>
    <g id="Page-1" stroke="none" stroke-width="1" fill="none" fill-rule="evenodd">
        <g id="Orderhero" transform="translate(-1090.000000, -1176.000000)" fill="#FFFFFF" fill-rule="nonzero">
            <path d="M1109.46475,1179.77331 L1115.04876,1179.79552 L1115.98929,1179.79165 L1116.41473,1179.78627 L1127.32857,1179.78627 C1128.37392,1179.78627 1129.17263,1180.5974 1128.38355,1181.72583 L1128.31607,1181.81801 L1124.48321,1186.85487 C1127.26086,1190.21979 1128.9295,1194.53406 1128.9295,1199.23806 C1128.9295,1209.98815 1120.21484,1218.70281 1109.46475,1218.70281 C1106.25905,1218.70281 1103.23434,1217.92786 1100.56776,1216.55508 L1098.50234,1218.298 C1097.38019,1219.24598 1096.03285,1218.35704 1096.845,1216.8813 L1096.89744,1216.79023 L1105.34711,1202.73638 C1105.88396,1201.84518 1105.78632,1200.19199 1104.03673,1200.11558 L1103.90894,1200.11283 L1101.2671,1200.11283 C1100.21686,1200.11283 1099.20867,1198.83297 1100.33337,1197.2714 L1100.41154,1197.16689 L1111.47063,1182.9037 C1110.81318,1182.8238 1110.14377,1182.78268 1109.46475,1182.78268 C1100.37669,1182.78268 1093.00937,1190.15 1093.00937,1199.23806 C1093.00937,1204.05149 1095.07606,1208.38221 1098.3705,1211.39128 L1096.66346,1213.90143 C1092.57974,1210.33334 1090,1205.08697 1090,1199.23806 C1090,1188.48798 1098.71467,1179.77331 1109.46475,1179.77331 Z M1150.88362,1189.36384 C1154.64345,1189.36384 1158.06908,1190.75637 1160.56139,1193.21465 L1160.72987,1193.38391 C1163.40992,1196.06395 1164.86646,1199.55966 1164.86646,1203.28842 C1164.86646,1207.01718 1163.40992,1210.51289 1160.72987,1213.19293 C1158.10809,1215.81471 1154.61238,1217.27126 1150.88362,1217.27126 C1147.27139,1217.27126 1143.71742,1215.81471 1140.97911,1213.19293 C1138.35733,1210.45462 1136.90078,1206.90065 1136.90078,1203.28842 C1136.90078,1199.61792 1138.35733,1196.06395 1140.97911,1193.38391 C1143.65915,1190.82038 1147.15486,1189.36384 1150.88362,1189.36384 Z M1226.57899,1189.36384 C1228.44337,1189.36384 1230.13296,1189.71341 1231.70603,1190.47081 C1233.45389,1191.28648 1234.85217,1192.33519 1235.90089,1193.55869 C1237.35743,1195.12728 1238.49078,1197.1268 1239.09375,1199.40186 L1239.16355,1199.67618 C1239.43245,1200.69801 1239.55242,1201.76947 1239.56929,1202.98223 L1239.57138,1203.28842 L1239.57138,1204.62844 L1219.9954,1204.62844 L1220.05367,1205.03627 C1220.79845,1208.5883 1223.45865,1211.18262 1226.42776,1211.26811 L1226.63725,1211.27029 C1228.2665,1211.15793 1230.05828,1210.17877 1231.17674,1209.27314 L1231.93908,1208.64851 L1236.77481,1212.84336 L1235.90089,1213.60076 L1235.56642,1213.90016 C1235.04449,1214.35898 1234.43517,1214.85056 1233.78761,1215.22744 L1233.57041,1215.34862 L1233.51215,1215.34862 C1231.49862,1216.52318 1229.32401,1217.16079 1226.88522,1217.26147 L1226.57899,1217.27126 L1226.52073,1217.27126 C1224.83114,1217.27126 1223.08328,1216.86343 1221.45195,1216.10602 C1219.93714,1215.46514 1218.53886,1214.41643 1217.2571,1213.07641 C1215.27973,1210.92955 1214.06933,1208.12527 1213.73217,1205.19483 L1213.70312,1204.91975 C1213.64486,1204.39539 1213.5866,1203.87104 1213.5866,1203.28842 C1213.5866,1202.22911 1213.73105,1201.12166 1213.97618,1200.00982 L1214.0527,1199.67618 C1214.57705,1197.34571 1215.68403,1195.19002 1217.2571,1193.55869 C1218.42233,1192.27693 1219.76236,1191.28648 1221.45195,1190.47081 C1223.02502,1189.71341 1224.77287,1189.36384 1226.57899,1189.36384 Z M1302.23199,1189.36384 C1304.09637,1189.36384 1305.78596,1189.71341 1307.35903,1190.47081 C1309.10689,1191.28648 1310.50517,1192.33519 1311.55388,1193.55869 C1313.01043,1195.12728 1314.14378,1197.1268 1314.74675,1199.40186 L1314.81655,1199.67618 C1315.08545,1200.69801 1315.20542,1201.76947 1315.22228,1202.98223 L1315.22438,1203.28842 L1315.22438,1204.62844 L1295.6484,1204.62844 L1295.70666,1205.03627 C1296.45144,1208.5883 1299.11165,1211.18262 1302.08076,1211.26811 L1302.29025,1211.27029 C1303.9195,1211.15793 1305.71128,1210.17877 1306.82974,1209.27314 L1307.59208,1208.64851 L1312.42781,1212.84336 L1311.55388,1213.60076 L1311.21942,1213.90016 C1310.69749,1214.35898 1310.08817,1214.85056 1309.44061,1215.22744 L1309.22341,1215.34862 L1309.16515,1215.34862 C1307.15162,1216.52318 1304.97701,1217.16079 1302.53822,1217.26147 L1302.23199,1217.27126 L1302.17373,1217.27126 C1300.48413,1217.27126 1298.73628,1216.86343 1297.10495,1216.10602 C1295.59014,1215.46514 1294.19185,1214.41643 1292.91009,1213.07641 C1290.93272,1210.92955 1289.72233,1208.12527 1289.38517,1205.19483 L1289.35612,1204.91975 C1289.29786,1204.39539 1289.2396,1203.87104 1289.2396,1203.28842 C1289.2396,1202.22911 1289.38405,1201.12166 1289.62918,1200.00982 L1289.70569,1199.67618 C1290.23005,1197.34571 1291.33702,1195.19002 1292.91009,1193.55869 C1294.07533,1192.27693 1295.41535,1191.28648 1297.10495,1190.47081 C1298.67802,1189.71341 1300.42587,1189.36384 1302.23199,1189.36384 Z M1347.96753,1189.36384 C1351.72736,1189.36384 1355.15299,1190.75637 1357.6453,1193.21465 L1357.81378,1193.38391 C1360.49383,1196.06395 1361.95037,1199.55966 1361.95037,1203.28842 C1361.95037,1207.01718 1360.49383,1210.51289 1357.81378,1213.19293 C1355.192,1215.81471 1351.69629,1217.27126 1347.96753,1217.27126 C1344.3553,1217.27126 1340.80133,1215.81471 1338.06302,1213.19293 C1335.44124,1210.45462 1333.98469,1206.90065 1333.98469,1203.28842 C1333.98469,1199.61792 1335.44124,1196.06395 1338.06302,1193.38391 C1340.74306,1190.82038 1344.23877,1189.36384 1347.96753,1189.36384 Z M1211.23229,1176.70281 L1211.23229,1216.63038 L1204.18261,1216.63038 L1204.18261,1214.53295 L1203.8913,1214.82426 C1201.79388,1216.86343 1199.40514,1217.15474 1197.30771,1217.15474 C1193.63722,1217.15474 1190.14151,1215.75645 1187.46146,1213.13467 C1184.83968,1210.45462 1183.38313,1206.95891 1183.38313,1203.28842 C1183.38313,1199.61792 1184.83968,1196.12221 1187.46146,1193.44217 C1190.08325,1190.82038 1193.57896,1189.4221 1197.30771,1189.4221 C1199.67578,1189.4221 1201.82558,1190.24055 1203.70433,1191.87746 L1203.8913,1192.04388 L1204.18261,1192.27693 L1204.18261,1177.78913 L1211.23229,1176.70281 Z M1183.88366,1189.30558 L1182.1358,1196.58831 L1181.02883,1196.58831 C1177.64509,1196.58831 1174.88236,1199.18525 1174.79685,1202.32294 L1174.79481,1202.47275 L1174.79481,1216.63038 L1167.45382,1216.63038 L1167.45382,1189.94646 L1174.79481,1189.94646 L1174.79481,1192.10214 C1176.83555,1190.06141 1179.86908,1189.34439 1181.96348,1189.30712 L1182.1358,1189.30558 L1183.88366,1189.30558 Z M1258.88518,1189.30558 L1257.13733,1196.58831 L1256.03035,1196.58831 C1252.64661,1196.58831 1249.88388,1199.18525 1249.79837,1202.32294 L1249.79633,1202.47275 L1249.79633,1216.63038 L1242.45534,1216.63038 L1242.45534,1189.94646 L1249.79633,1189.94646 L1249.79633,1192.10214 C1251.83707,1190.06141 1254.8706,1189.34439 1256.96501,1189.30712 L1257.13733,1189.30558 L1258.88518,1189.30558 Z M1268.11968,1176.72082 L1268.11968,1191.8691 C1269.9258,1190.06298 1271.84844,1189.4221 1273.77108,1189.4221 C1277.26679,1189.4221 1280.52945,1190.76212 1282.97645,1193.15086 C1285.36519,1195.59647 1286.69903,1198.76384 1286.76119,1202.111 L1286.76347,1202.35623 L1286.76347,1216.63038 L1279.42248,1216.63038 L1279.42248,1202.35623 C1279.42248,1199.21009 1276.91722,1196.76309 1273.77108,1196.76309 C1270.79113,1196.76309 1268.20575,1199.18688 1268.12179,1202.20484 L1268.11968,1202.35623 L1268.11968,1216.63038 L1260.83695,1216.63038 L1260.83695,1177.84315 L1268.11968,1176.72082 Z M1334.53818,1189.30558 L1332.79032,1196.58831 L1331.68335,1196.58831 C1328.29961,1196.58831 1325.53688,1199.18525 1325.45137,1202.32294 L1325.44933,1202.47275 L1325.44933,1216.63038 L1318.10834,1216.63038 L1318.10834,1189.94646 L1325.44933,1189.94646 L1325.44933,1192.10214 C1327.49007,1190.06141 1330.5236,1189.34439 1332.618,1189.30712 L1332.79032,1189.30558 L1334.53818,1189.30558 Z M1122.60166,1189.32687 L1120.06006,1192.66746 C1119.40764,1193.52486 1119.62066,1194.77423 1121.05354,1194.84114 L1121.17578,1194.84394 L1123.07199,1194.84394 C1123.84949,1194.84394 1124.92345,1195.79082 1123.91889,1196.84245 L1123.83961,1196.92151 L1103.10166,1214.41803 C1105.0591,1215.23952 1107.20891,1215.69345 1109.46475,1215.69345 C1118.55281,1215.69345 1125.92014,1208.32612 1125.92014,1199.23806 C1125.92014,1195.51654 1124.68473,1192.08357 1122.60166,1189.32687 Z M1150.88362,1196.00569 C1146.98008,1196.00569 1143.77568,1199.26835 1143.77568,1203.28842 C1143.77568,1207.30848 1146.98008,1210.57115 1150.88362,1210.57115 C1154.84543,1210.57115 1158.04983,1207.30848 1158.04983,1203.28842 C1158.04983,1199.26835 1154.84543,1196.00569 1150.88362,1196.00569 Z M1347.96753,1196.00569 C1344.06399,1196.00569 1340.85959,1199.26835 1340.85959,1203.28842 C1340.85959,1207.30848 1344.06399,1210.57115 1347.96753,1210.57115 C1351.92934,1210.57115 1355.13374,1207.30848 1355.13374,1203.28842 C1355.13374,1199.26835 1351.92934,1196.00569 1347.96753,1196.00569 Z M1197.30771,1196.23874 C1193.57896,1196.23874 1190.43282,1199.5014 1190.43282,1203.28842 C1190.43282,1207.1337 1193.57896,1210.3381 1197.30771,1210.3381 C1201.03647,1210.3381 1204.18261,1207.1337 1204.18261,1203.28842 C1204.18261,1199.5014 1201.03647,1196.23874 1197.30771,1196.23874 Z M1226.57899,1195.42307 C1224.35842,1195.42307 1222.13785,1196.92545 1220.8961,1199.27766 L1220.81107,1199.44314 L1220.57802,1199.90923 L1232.63822,1199.90923 L1232.40517,1199.44314 C1231.06515,1196.93788 1228.8512,1195.42307 1226.57899,1195.42307 Z M1302.23199,1195.42307 C1300.01142,1195.42307 1297.79085,1196.92545 1296.5491,1199.27766 L1296.46407,1199.44314 L1296.23102,1199.90923 L1308.29122,1199.90923 L1308.05817,1199.44314 C1306.71815,1196.93788 1304.5042,1195.42307 1302.23199,1195.42307 Z" id="logotype-dark-blue"></path>
        </g>
    </g>
</svg>