<?xml version="1.0" encoding="UTF-8"?>
<svg width="527px" height="75px" viewBox="0 0 527 75" version="1.1" xmlns="http://www.w3.org/2000/svg" xmlns:xlink="http://www.w3.org/1999/xlink">
    <!-- Generator: Sketch 63.1 (92452) - https://sketch.com -->
    <title>orderhero-original-color@1x</title>
    <desc>Created with Sketch.</desc>
    <g id="Page-1" stroke="none" stroke-width="1" fill="none" fill-rule="evenodd">
        <g id="Orderhero" transform="translate(-8.000000, -2472.000000)" fill-rule="nonzero">
            <g id="orderhero-original-color" transform="translate(8.000000, 2472.000000)">
                <path d="M335.245961,0 L335.245961,24.4235294 L335.720523,24.0154771 C337.953691,22.1395381 340.446484,20.6598693 343.198902,19.5764706 C346.147922,18.4156863 349.285176,17.8352941 352.610667,17.8352941 C356.59498,17.8352941 360.210667,18.5254902 363.457726,19.9058824 C366.704784,21.2862745 369.481255,23.1764706 371.787137,25.5764706 C374.09302,27.9764706 375.842039,30.745098 377.034196,33.8823529 C378.156226,36.7760092 378.750242,39.864197 378.816244,43.1469163 L378.822431,43.7647059 L378.822431,70.4941176 L369.928314,70.4941176 L369.928314,44.0470588 L369.91228,43.5394492 C369.779316,40.5094346 368.98466,37.7609907 367.528314,35.2941176 C365.991059,32.6901961 363.912627,30.6196078 361.29302,29.0823529 C358.673412,27.545098 355.763608,26.7764706 352.563608,26.7764706 C349.363608,26.7764706 346.461647,27.545098 343.857726,29.0823529 C341.253804,30.6196078 339.183216,32.6823529 337.645961,35.2705882 C336.189614,37.7226006 335.394959,40.4632231 335.261995,43.4924556 L335.245961,44 L335.245961,70.3529412 L326.351843,70.3529412 L326.351843,0 L335.245961,0 Z M110.951843,17.8352941 C115.751843,17.8352941 120.144,19.0196078 124.128314,21.3882353 C128.112627,23.7568627 131.289098,26.9333333 133.657726,30.9176471 C136.026353,34.9019608 137.210667,39.2941176 137.210667,44.0941176 C137.210667,48.9254902 136.026353,53.3254902 133.657726,57.2941176 C131.289098,61.2627451 128.112627,64.4313725 124.128314,66.8 C120.144,69.1686275 115.751843,70.3529412 110.951843,70.3529412 C106.120471,70.3529412 101.720471,69.1686275 97.7518431,66.8 C93.7832157,64.4313725 90.6145882,61.2627451 88.2459608,57.2941176 C85.8773333,53.3254902 84.6930196,48.9254902 84.6930196,44.0941176 C84.6930196,39.2941176 85.8773333,34.9019608 88.2459608,30.9176471 C90.6145882,26.9333333 93.7832157,23.7568627 97.7518431,21.3882353 C101.720471,19.0196078 106.120471,17.8352941 110.951843,17.8352941 Z M153.504784,17.8352941 L153.504784,24.4235294 L153.973281,24.0154771 C156.17912,22.1395381 158.658248,20.6598693 161.410667,19.5764706 C164.175373,18.4882353 167.10552,17.9101103 170.201108,17.8420956 L170.822431,17.8352941 L170.822431,26.7764706 L170.344608,26.7822941 C167.332176,26.8560588 164.581647,27.6305882 162.09302,29.1058824 C159.473412,30.6588235 157.387137,32.745098 155.834196,35.3647059 C154.358902,37.8533333 153.584373,40.6038627 153.510608,43.6162941 L153.504784,44.0941176 L153.504784,70.3529412 L144.563608,70.3529412 L144.563608,17.8352941 L153.504784,17.8352941 Z M225.516549,0 L225.516549,70.3529412 L216.575373,70.3529412 L216.575951,63.7679444 C215.303628,64.8913526 213.915199,65.9020378 212.410667,66.8 C208.442039,69.1686275 204.057726,70.3529412 199.257726,70.3529412 C194.426353,70.3529412 190.026353,69.1686275 186.057726,66.8 C182.089098,64.4313725 178.920471,61.2627451 176.551843,57.2941176 C174.183216,53.3254902 172.998902,48.9254902 172.998902,44.0941176 C172.998902,39.2941176 174.183216,34.9019608 176.551843,30.9176471 C178.920471,26.9333333 182.089098,23.7568627 186.057726,21.3882353 C190.026353,19.0196078 194.426353,17.8352941 199.257726,17.8352941 C202.583216,17.8352941 205.720471,18.4156863 208.66949,19.5764706 C211.421909,20.6598693 213.901037,22.1395381 216.106876,24.0154771 L216.575373,24.4235294 L216.575373,0 L225.516549,0 Z M259.128314,17.8352941 C263.426353,17.8352941 267.402824,18.8 271.057726,20.7294118 C274.712627,22.6588235 277.763608,25.254902 280.210667,28.5176471 C282.657726,31.7803922 284.257726,35.4823529 285.010667,39.6235294 C285.230275,41.0039216 285.355765,42.4941176 285.387137,44.0941176 C285.387137,45.4117647 285.29494,46.6948379 285.110547,47.9433373 L285.010667,48.5647059 L242.375373,48.5647059 C243.410667,52.3607843 245.449882,55.4588235 248.49302,57.8588235 C251.536157,60.2588235 255.081255,61.4588235 259.128314,61.4588235 C261.544,61.4588235 263.810667,61.0039216 265.928314,60.0941176 C268.045961,59.1843137 269.889098,57.9294118 271.457726,56.3294118 L274.686487,52.9922866 L276.914118,54.7557605 L278.519947,56.0526187 L279.197527,56.6098436 C280.076914,57.3384876 280.836326,57.9919683 281.190637,58.355812 C281.378415,58.5486424 279.969405,60.2104305 276.963608,63.3411765 C274.610667,65.5372549 271.904784,67.254902 268.845961,68.4941176 C265.787137,69.7333333 262.547922,70.3529412 259.128314,70.3529412 C254.830275,70.3529412 250.845961,69.3960784 247.175373,67.4823529 C243.504784,65.5686275 240.453804,62.9803922 238.022431,59.7176471 C235.591059,56.454902 233.998902,52.7372549 233.245961,48.5647059 C233.026353,47.2156863 232.900863,45.7254902 232.86949,44.0941176 C232.86949,42.7137255 232.99498,41.2235294 233.245961,39.6235294 C233.998902,35.4823529 235.591059,31.7803922 238.022431,28.5176471 C240.453804,25.254902 243.504784,22.6588235 247.175373,20.7294118 C250.845961,18.8 254.830275,17.8352941 259.128314,17.8352941 Z M301.681255,17.8352941 L301.681255,24.4235294 L302.149752,24.0154771 C304.35559,22.1395381 306.834719,20.6598693 309.587137,19.5764706 C312.351843,18.4882353 315.28199,17.9101103 318.377578,17.8420956 L318.998902,17.8352941 L318.998902,26.7764706 L318.521078,26.7822941 C315.508647,26.8560588 312.758118,27.6305882 310.26949,29.1058824 C307.649882,30.6588235 305.563608,32.745098 304.010667,35.3647059 C302.535373,37.8533333 301.760843,40.6038627 301.687078,43.6162941 L301.681255,44.0941176 L301.681255,70.3529412 L292.740078,70.3529412 L292.740078,17.8352941 L301.681255,17.8352941 Z M412.128314,17.8352941 C416.426353,17.8352941 420.402824,18.8 424.057726,20.7294118 C427.712627,22.6588235 430.763608,25.254902 433.210667,28.5176471 C435.657726,31.7803922 437.257726,35.4823529 438.010667,39.6235294 C438.230275,41.0039216 438.355765,42.4941176 438.387137,44.0941176 C438.387137,45.4117647 438.29494,46.6948379 438.110547,47.9433373 L438.010667,48.5647059 L395.375373,48.5647059 C396.410667,52.3607843 398.449882,55.4588235 401.49302,57.8588235 C404.536157,60.2588235 408.081255,61.4588235 412.128314,61.4588235 C414.544,61.4588235 416.810667,61.0039216 418.928314,60.0941176 C421.045961,59.1843137 422.889098,57.9294118 424.457726,56.3294118 L427.686487,52.9922866 L429.914118,54.7557605 L431.519947,56.0526187 L432.197527,56.6098436 C433.076914,57.3384876 433.836326,57.9919683 434.190637,58.355812 C434.378415,58.5486424 432.969405,60.2104305 429.963608,63.3411765 C427.610667,65.5372549 424.904784,67.254902 421.845961,68.4941176 C418.787137,69.7333333 415.547922,70.3529412 412.128314,70.3529412 C407.830275,70.3529412 403.845961,69.3960784 400.175373,67.4823529 C396.504784,65.5686275 393.453804,62.9803922 391.022431,59.7176471 C388.591059,56.454902 386.998902,52.7372549 386.245961,48.5647059 C386.026353,47.2156863 385.900863,45.7254902 385.86949,44.0941176 C385.86949,42.7137255 385.99498,41.2235294 386.245961,39.6235294 C386.998902,35.4823529 388.591059,31.7803922 391.022431,28.5176471 C393.453804,25.254902 396.504784,22.6588235 400.175373,20.7294118 C403.845961,18.8 407.830275,17.8352941 412.128314,17.8352941 Z M454.987137,17.8352941 L454.987137,24.4235294 L455.455634,24.0154771 C457.661473,22.1395381 460.140601,20.6598693 462.89302,19.5764706 C465.657726,18.4882353 468.587873,17.9101103 471.683461,17.8420956 L472.304784,17.8352941 L472.304784,26.7764706 L471.826961,26.7822941 C468.814529,26.8560588 466.064,27.6305882 463.575373,29.1058824 C460.955765,30.6588235 458.86949,32.745098 457.316549,35.3647059 C455.841255,37.8533333 455.066726,40.6038627 454.992961,43.6162941 L454.987137,44.0941176 L454.987137,70.3529412 L446.045961,70.3529412 L446.045961,17.8352941 L454.987137,17.8352941 Z M499.798902,17.8352941 C504.598902,17.8352941 508.991059,19.0196078 512.975373,21.3882353 C516.959686,23.7568627 520.136157,26.9333333 522.504784,30.9176471 C524.873412,34.9019608 526.057726,39.2941176 526.057726,44.0941176 C526.057726,48.9254902 524.873412,53.3254902 522.504784,57.2941176 C520.136157,61.2627451 516.959686,64.4313725 512.975373,66.8 C508.991059,69.1686275 504.598902,70.3529412 499.798902,70.3529412 C494.967529,70.3529412 490.567529,69.1686275 486.598902,66.8 C482.630275,64.4313725 479.461647,61.2627451 477.09302,57.2941176 C474.724392,53.3254902 473.540078,48.9254902 473.540078,44.0941176 C473.540078,39.2941176 474.724392,34.9019608 477.09302,30.9176471 C479.461647,26.9333333 482.630275,23.7568627 486.598902,21.3882353 C490.567529,19.0196078 494.967529,17.8352941 499.798902,17.8352941 Z M110.951843,26.7764706 C107.751843,26.7764706 104.842039,27.5529412 102.222431,29.1058824 C99.6028235,30.6588235 97.516549,32.745098 95.9636079,35.3647059 C94.4106667,37.9843137 93.6341961,40.8941176 93.6341961,44.0941176 C93.6341961,47.3254902 94.4106667,50.2509804 95.9636079,52.8705882 C97.516549,55.4901961 99.6028235,57.5764706 102.222431,59.1294118 C104.842039,60.6823529 107.751843,61.4588235 110.951843,61.4588235 C114.151843,61.4588235 117.061647,60.6823529 119.681255,59.1294118 C122.300863,57.5764706 124.387137,55.4901961 125.940078,52.8705882 C127.49302,50.2509804 128.26949,47.3254902 128.26949,44.0941176 C128.26949,40.8941176 127.49302,37.9843137 125.940078,35.3647059 C124.387137,32.745098 122.300863,30.6588235 119.681255,29.1058824 C117.061647,27.5529412 114.151843,26.7764706 110.951843,26.7764706 Z M199.257726,26.7764706 C196.057726,26.7764706 193.147922,27.5529412 190.528314,29.1058824 C187.908706,30.6588235 185.822431,32.745098 184.26949,35.3647059 C182.716549,37.9843137 181.940078,40.8941176 181.940078,44.0941176 C181.940078,47.3254902 182.716549,50.2509804 184.26949,52.8705882 C185.822431,55.4901961 187.908706,57.5764706 190.528314,59.1294118 C193.147922,60.6823529 196.057726,61.4588235 199.257726,61.4588235 C202.457726,61.4588235 205.367529,60.6823529 207.987137,59.1294118 C210.606745,57.5764706 212.69302,55.4901961 214.245961,52.8705882 C215.798902,50.2509804 216.575373,47.3254902 216.575373,44.0941176 C216.575373,40.8941176 215.798902,37.9843137 214.245961,35.3647059 C212.69302,32.745098 210.606745,30.6588235 207.987137,29.1058824 C205.367529,27.5529412 202.457726,26.7764706 199.257726,26.7764706 Z M499.798902,26.7764706 C496.598902,26.7764706 493.689098,27.5529412 491.06949,29.1058824 C488.449882,30.6588235 486.363608,32.745098 484.810667,35.3647059 C483.257726,37.9843137 482.481255,40.8941176 482.481255,44.0941176 C482.481255,47.3254902 483.257726,50.2509804 484.810667,52.8705882 C486.363608,55.4901961 488.449882,57.5764706 491.06949,59.1294118 C493.689098,60.6823529 496.598902,61.4588235 499.798902,61.4588235 C502.998902,61.4588235 505.908706,60.6823529 508.528314,59.1294118 C511.147922,57.5764706 513.234196,55.4901961 514.787137,52.8705882 C516.340078,50.2509804 517.116549,47.3254902 517.116549,44.0941176 C517.116549,40.8941176 516.340078,37.9843137 514.787137,35.3647059 C513.234196,32.745098 511.147922,30.6588235 508.528314,29.1058824 C505.908706,27.5529412 502.998902,26.7764706 499.798902,26.7764706 Z M259.128314,26.7764706 C255.081255,26.7764706 251.536157,27.9764706 248.49302,30.3764706 C245.566926,32.6841629 243.569015,35.6227289 242.499285,39.1921685 L242.375373,39.6235294 L275.881255,39.6235294 C274.845961,35.8588235 272.806745,32.7764706 269.763608,30.3764706 C266.720471,27.9764706 263.175373,26.7764706 259.128314,26.7764706 Z M412.128314,26.7764706 C408.081255,26.7764706 404.536157,27.9764706 401.49302,30.3764706 C398.566926,32.6841629 396.569015,35.6227289 395.499285,39.1921685 L395.375373,39.6235294 L428.881255,39.6235294 C427.845961,35.8588235 425.806745,32.7764706 422.763608,30.3764706 C419.720471,27.9764706 416.175373,26.7764706 412.128314,26.7764706 Z" id="Shape" fill="#3C57DA"></path>
                <path d="M34.25,5.75 L44.0755722,5.78907263 C44.7338614,5.78902882 45.3021331,5.78704497 45.7305197,5.78226299 L46.4791256,5.77279895 L65.6830167,5.77279895 C67.5224068,5.77279895 68.927815,7.2000539 67.5393565,9.18564217 L67.4206098,9.34784218 L60.6763474,18.210648 C65.5638809,24.1315282 68.5,31.7228804 68.5,40 C68.5,58.9157527 53.1657527,74.25 34.25,74.25 C28.6092746,74.25 23.2870337,72.8864059 18.5949316,70.470872 L14.9606467,73.5376938 C12.9861191,75.2057585 10.6153474,73.6415886 12.0443996,71.0448885 L12.1366761,70.8846354 L27.0046306,46.1556026 C27.949266,44.5874706 27.7774734,41.6785228 24.6989066,41.544071 L24.4740414,41.5392413 L19.8254948,41.5392413 C17.9774993,41.5392413 16.2034897,39.287204 18.1825131,36.5394897 L18.3200484,36.3555937 L37.779524,11.2582098 C36.6226809,11.1176199 35.4447916,11.045253 34.25,11.045253 C18.2587348,11.045253 5.29525299,24.0087348 5.29525299,40 C5.29525299,48.4696594 8.93178908,56.0899603 14.7286526,61.384694 L11.7249726,65.8015246 C4.53929061,59.5231573 0,50.2916827 0,40 C0,21.0842473 15.3342473,5.75 34.25,5.75 Z M57.3655941,22.5603542 L52.8934068,28.4384245 C51.7454156,29.947105 52.1202523,32.14548 54.641538,32.2632091 L54.8566271,32.2681441 L58.1931691,32.2681441 C59.5612553,32.2681441 61.4509909,33.9342641 59.6833727,35.7847098 L59.5438785,35.9238156 L23.0535573,66.7105388 C26.497852,68.1560268 30.2806505,68.954747 34.25,68.954747 C50.2412652,68.954747 63.204747,55.9912652 63.204747,40 C63.204747,33.4516481 61.0309448,27.4110149 57.3655941,22.5603542 Z" id="Combined-Shape" fill="#273A64"></path>
            </g>
        </g>
    </g>
</svg>